@startuml
package "Diagrama de clases" {
    class Empleado {
        +id: Integer
        +perfil: Perfil
    }

    class Perfil {
        +id: Integer
        +biografia: String
        +redSocial: String
    }

    Empleado --> Perfil
}
package "Modelo de Datos" {
    entity "Empleado" as empleado {
        *id: int <<PK>>
        *perfil_id: int <<FK>>
    }

    entity "Perfil" as perfil {
        *id: int <<PK>>
        *biografia: varchar(50)
        *redSocial: varchar(50)
    }

    empleado ||--|| perfil

}
@enduml
